HIERARCHY
ROOT Hips
{
  OFFSET 5.84602e-005 68.8428 3.50346
  CHANNELS 6 Xposition Yposition Zposition Zrotation Xrotation Yrotation
  JOINT Spine
  {
    OFFSET 0 8.597 -4.6522
    CHANNELS 3 Zrotation Xrotation Yrotation
    JOINT Spine1
    {
      OFFSET 0 7.8454 0.4098
      CHANNELS 3 Zrotation Xrotation Yrotation
      JOINT Spine2
      {
        OFFSET 0 9.7078 -2.1609
        CHANNELS 3 Zrotation Xrotation Yrotation
        JOINT Neck
        {
          OFFSET 0 21.8761 -0.4549
          CHANNELS 3 Zrotation Xrotation Yrotation
          JOINT Head
          {
            OFFSET 0 12.3537 3.3602
            CHANNELS 3 Zrotation Xrotation Yrotation
            End Site
            {
              OFFSET 0.0001 18.9506 0.5657
            }
          }
        }
        JOINT LeftShoulder
        {
          OFFSET 2.2086 21.1115 7.2329
          CHANNELS 3 Zrotation Xrotation Yrotation
          JOINT LeftArm
          {
            OFFSET 13.1193 3.0282 -4.8998
            CHANNELS 3 Zrotation Xrotation Yrotation
            JOINT LeftForeArm
            {
              OFFSET 27.4081 -0.0973053 -0.2375
              CHANNELS 3 Zrotation Xrotation Yrotation
              JOINT LeftHand
              {
                OFFSET 22.8641 0.0662994 -0.1369
                CHANNELS 3 Zrotation Xrotation Yrotation
                JOINT LeftHandIndex1
                {
                  OFFSET 8.8614 0.775009 2.4612
                  CHANNELS 3 Zrotation Xrotation Yrotation
                  JOINT LeftHandIndex2
                  {
                    OFFSET 3.3146 -0.808304 0.5841
                    CHANNELS 3 Zrotation Xrotation Yrotation
                    JOINT LeftHandIndex3
                    {
                      OFFSET 2.2628 -0.552002 0.3989
                      CHANNELS 3 Zrotation Xrotation Yrotation
                      End Site
                      {
                        OFFSET 1.6102 -0.4807 0.2612
                      }
                    }
                  }
                }
                JOINT LeftHandMiddle1
                {
                  OFFSET 8.9937 0.895004 0.2143
                  CHANNELS 3 Zrotation Xrotation Yrotation
                  JOINT LeftHandMiddle2
                  {
                    OFFSET 4.0984 0.0113983 -0.0242
                    CHANNELS 3 Zrotation Xrotation Yrotation
                    JOINT LeftHandMiddle3
                    {
                      OFFSET 2.2716 0.00689697 -0.0138001
                      CHANNELS 3 Zrotation Xrotation Yrotation
                      End Site
                      {
                        OFFSET 2.0404 -0.1441 0.0027
                      }
                    }
                  }
                }
                JOINT LeftHandRing1
                {
                  OFFSET 8.5234 0.597198 -2.0164
                  CHANNELS 3 Zrotation Xrotation Yrotation
                  JOINT LeftHandRing2
                  {
                    OFFSET 3.7188 -0.188293 -0.2328
                    CHANNELS 3 Zrotation Xrotation Yrotation
                    JOINT LeftHandRing3
                    {
                      OFFSET 2.1191 -0.106598 -0.1332
                      CHANNELS 3 Zrotation Xrotation Yrotation
                      End Site
                      {
                        OFFSET 1.8737 -0.2304 -0.0886
                      }
                    }
                  }
                }
                JOINT LeftHandPinky1
                {
                  OFFSET 7.9094 -0.601089 -3.4825
                  CHANNELS 3 Zrotation Xrotation Yrotation
                  JOINT LeftHandPinky2
                  {
                    OFFSET 2.2874 -0.477005 -0.6314
                    CHANNELS 3 Zrotation Xrotation Yrotation
                    JOINT LeftHandPinky3
                    {
                      OFFSET 1.6774 -0.349396 -0.4633
                      CHANNELS 3 Zrotation Xrotation Yrotation
                      End Site
                      {
                        OFFSET 1.4888 -0.4091 -0.3416
                      }
                    }
                  }
                }
                JOINT LeftHandThumb1
                {
                  OFFSET 1.833 -1.3875 1.3896
                  CHANNELS 3 Zrotation Xrotation Yrotation
                  JOINT LeftHandThumb2
                  {
                    OFFSET 3.4129 -1.121 2.5732
                    CHANNELS 3 Zrotation Xrotation Yrotation
                    JOINT LeftHandThumb3
                    {
                      OFFSET 2.2474 -0.804199 1.6192
                      CHANNELS 3 Zrotation Xrotation Yrotation
                      End Site
                      {
                        OFFSET 1.6527 -0.5689 1.1317
                      }
                    }
                  }
                }
              }
            }
          }
        }
        JOINT RightShoulder
        {
          OFFSET -2.2086 21.1115 7.2329
          CHANNELS 3 Zrotation Xrotation Yrotation
          JOINT RightArm
          {
            OFFSET -13.1216 3.0287 -4.9007
            CHANNELS 3 Zrotation Xrotation Yrotation
            JOINT RightForeArm
            {
              OFFSET -27.4081 -0.0973053 -0.2375
              CHANNELS 3 Zrotation Xrotation Yrotation
              JOINT RightHand
              {
                OFFSET -22.8641 0.0664063 -0.1369
                CHANNELS 3 Zrotation Xrotation Yrotation
                JOINT RightHandIndex1
                {
                  OFFSET -8.8614 0.774994 2.4612
                  CHANNELS 3 Zrotation Xrotation Yrotation
                  JOINT RightHandIndex2
                  {
                    OFFSET -3.3146 -0.808304 0.5841
                    CHANNELS 3 Zrotation Xrotation Yrotation
                    JOINT RightHandIndex3
                    {
                      OFFSET -2.2628 -0.552002 0.3989
                      CHANNELS 3 Zrotation Xrotation Yrotation
                      End Site
                      {
                        OFFSET -1.6102 -0.4807 0.2612
                      }
                    }
                  }
                }
                JOINT RightHandMiddle1
                {
                  OFFSET -8.9937 0.894989 0.2143
                  CHANNELS 3 Zrotation Xrotation Yrotation
                  JOINT RightHandMiddle2
                  {
                    OFFSET -4.0984 0.0113983 -0.0242
                    CHANNELS 3 Zrotation Xrotation Yrotation
                    JOINT RightHandMiddle3
                    {
                      OFFSET -2.2716 0.00691223 -0.0138001
                      CHANNELS 3 Zrotation Xrotation Yrotation
                      End Site
                      {
                        OFFSET -2.0404 -0.1441 0.0027
                      }
                    }
                  }
                }
                JOINT RightHandRing1
                {
                  OFFSET -8.5234 0.597198 -2.0164
                  CHANNELS 3 Zrotation Xrotation Yrotation
                  JOINT RightHandRing2
                  {
                    OFFSET -3.7188 -0.188309 -0.2328
                    CHANNELS 3 Zrotation Xrotation Yrotation
                    JOINT RightHandRing3
                    {
                      OFFSET -2.1191 -0.106598 -0.1332
                      CHANNELS 3 Zrotation Xrotation Yrotation
                      End Site
                      {
                        OFFSET -1.8737 -0.2304 -0.0886
                      }
                    }
                  }
                }
                JOINT RightHandPinky1
                {
                  OFFSET -7.9094 -0.601105 -3.4825
                  CHANNELS 3 Zrotation Xrotation Yrotation
                  JOINT RightHandPinky2
                  {
                    OFFSET -2.2874 -0.477005 -0.6314
                    CHANNELS 3 Zrotation Xrotation Yrotation
                    JOINT RightHandPinky3
                    {
                      OFFSET -1.6774 -0.349396 -0.4633
                      CHANNELS 3 Zrotation Xrotation Yrotation
                      End Site
                      {
                        OFFSET -1.4888 -0.4091 -0.3416
                      }
                    }
                  }
                }
                JOINT RightHandThumb1
                {
                  OFFSET -1.833 -1.38751 1.3896
                  CHANNELS 3 Zrotation Xrotation Yrotation
                  JOINT RightHandThumb2
                  {
                    OFFSET -3.41299 -1.12099 2.5732
                    CHANNELS 3 Zrotation Xrotation Yrotation
                    JOINT RightHandThumb3
                    {
                      OFFSET -2.24741 -0.804108 1.6192
                      CHANNELS 3 Zrotation Xrotation Yrotation
                      End Site
                      {
                        OFFSET -1.6527 -0.5689 1.1317
                      }
                    }
                  }
                }
              }
            }
          }
        }
      }
    }
  }
  JOINT RightUpLeg
  {
    OFFSET -9.1966 3.8861 -0.7581
    CHANNELS 3 Zrotation Xrotation Yrotation
    JOINT RightLeg
    {
      OFFSET -0.7359 -41.0265 0
      CHANNELS 3 Zrotation Xrotation Yrotation
      JOINT RightFoot
      {
        OFFSET 0 -40.2855 0
        CHANNELS 3 Zrotation Xrotation Yrotation
        JOINT RightToeBase
        {
          OFFSET 0 -5.6122 11.7359
          CHANNELS 3 Zrotation Xrotation Yrotation
          End Site
          {
            OFFSET 0 0 7.8731
          }
        }
      }
    }
  }
  JOINT LeftUpLeg
  {
    OFFSET 9.1965 3.8864 -0.7581
    CHANNELS 3 Zrotation Xrotation Yrotation
    JOINT LeftLeg
    {
      OFFSET 0.7359 -41.0268 0
      CHANNELS 3 Zrotation Xrotation Yrotation
      JOINT LeftFoot
      {
        OFFSET 0 -40.2855 0
        CHANNELS 3 Zrotation Xrotation Yrotation
        JOINT LeftToeBase
        {
          OFFSET 0 -5.6122 11.7359
          CHANNELS 3 Zrotation Xrotation Yrotation
          End Site
          {
            OFFSET 0 0 7.8731
          }
        }
      }
    }
  }
}
MOTION
Frames:	5
Frame Time:	0.0333333
39.7533 39.6496 18.5604 179.997 58.9947 3.2456e-011 -0.0293842 9.03477 -0.0834892 -0.0461185 18.0696 -0.165366 -0.0461185 18.0696 -0.165366 3.03436 0.350761 -0.59987 -1.24416e-006 0.0601783 -7.80433e-007 -12.3879 -4.01847 -3.9584 -49.5478 54.9901 3.00569 12.438 34.0288 -18.6324 2.8253 -7.55272 0.133066 -3.97569e-016 3.97569e-016 -3.18055e-015 -3.97569e-016 3.97569e-016 -6.36111e-015 3.97569e-016 3.97569e-016 -3.18055e-015 -3.97569e-016 3.97569e-016 -3.18055e-015 -0.0145625 -8.82398e-005 5.26356e-006 3.97569e-016 0 -6.36111e-015 -3.97569e-016 3.97569e-016 -3.18055e-015 -0.0187658 -0.00117652 5.68039e-005 -3.97569e-016 -2.72335e-014 3.18055e-015 -3.97569e-016 3.97569e-016 -3.18055e-015 -0.0122706 -0.00324808 0.000674186 8.34896e-015 2.42517e-014 -9.54166e-015 -3.97569e-016 3.97569e-016 -3.18055e-015 -3.97569e-016 3.97569e-016 -6.36111e-015 3.97569e-016 3.97569e-016 -3.18055e-015 6.50242 -5.23603 3.15115 57.6988 54.8997 -3.00437 -13.3653 33.7325 23.4114 -2.14314 -5.40529 -6.13425 7.95139e-016 -1.19271e-015 -0 7.95139e-016 -1.19271e-015 -3.18055e-015 7.95139e-016 -1.19271e-015 -3.18055e-015 7.95139e-016 -1.19271e-015 -0 0.0149785 -9.10899e-005 4.93386e-006 -2.28854e-008 -9.7917e-008 1.48871e-006 7.95139e-016 -1.19271e-015 -0 0.0190181 -0.0011919 -6.68913e-005 -3.97569e-016 1.98785e-016 3.18055e-015 7.95139e-016 -1.19271e-015 -0 0.0122341 -0.0032382 -0.000690948 -7.15625e-015 2.5842e-014 3.18055e-015 7.95139e-016 -1.19271e-015 -0 7.95139e-016 -1.19271e-015 -3.18055e-015 7.95139e-016 -1.19271e-015 -3.18055e-015 -50.9414 -73.6039 -81.0572 -1.56718 34.7744 41.8161 -23.701 -2.14383 -6.60913 1.60199e-008 6.62714e-008 -4.21251e-007 53.94 -71.9246 83.8503 1.56879 34.6821 -41.8446 21.3014 -2.28763 5.47653 -2.3302e-006 -2.50694e-007 -4.96571e-007 
39.7521 39.6495 18.5607 179.997 58.9947 3.2456e-011 -0.0291143 8.952 -0.0836032 -0.0456663 17.904 -0.16563 -0.0456662 17.904 -0.16563 3.25539 0.877807 -0.657979 -2.07794e-007 0.059712 9.67478e-007 -12.8087 -3.77894 -3.79715 -49.2379 54.9942 3.02434 12.438 34.0288 -18.6324 2.72798 -7.36648 0.00840552 -1.13694e-007 -1.69362e-007 -5.51066e-006 -1.25944e-007 1.72208e-007 -5.29258e-009 -1.13694e-007 -1.69362e-007 -5.51066e-006 -1.13694e-007 -1.69362e-007 -5.51066e-006 -0.0145711 -8.85204e-005 1.82613e-006 -1.13186e-007 -1.68659e-007 -5.51068e-006 -1.13694e-007 -1.69362e-007 -5.51066e-006 -0.0187634 -0.00117615 6.30742e-005 -1.13091e-007 -1.68419e-007 -5.51069e-006 -1.13694e-007 -1.69362e-007 -5.51066e-006 -0.0122649 -0.00324745 0.00067614 -1.1342e-007 -1.68658e-007 -5.5107e-006 -1.13694e-007 -1.69362e-007 -5.51066e-006 -1.25944e-007 1.72208e-007 -5.29258e-009 -1.13694e-007 -1.69362e-007 -5.51066e-006 6.87459 -4.95257 3.00201 57.4229 54.9009 -3.01136 -13.3653 33.7325 23.4114 -2.06184 -5.22268 -6.02012 2.10736e-008 9.76001e-008 -1.47493e-006 -7.87857e-009 2.3884e-007 -4.02904e-006 -1.19271e-015 7.95139e-016 -3.18055e-015 2.10736e-008 9.76001e-008 -1.47493e-006 0.0150052 -9.08422e-005 -4.87648e-006 -3.97569e-016 -1.98785e-016 -6.36111e-015 2.10736e-008 9.76001e-008 -1.47493e-006 0.0190308 -0.00119329 -5.93016e-005 3.97569e-016 -1.59028e-015 -3.18055e-015 2.10736e-008 9.76001e-008 -1.47493e-006 0.0122944 -0.00325434 -0.000680788 2.20558e-008 9.71707e-008 -1.475e-006 2.10736e-008 9.76001e-008 -1.47493e-006 -7.87857e-009 2.3884e-007 -4.02904e-006 -1.19271e-015 7.95139e-016 -3.18055e-015 -51.2545 -73.4438 -81.3515 -1.56696 34.7673 41.8171 -23.5035 -2.15859 -6.51588 -8.14033e-009 -3.30754e-008 2.1063e-007 53.9711 -71.9045 83.8793 1.5688 34.6824 -41.8444 21.3025 -2.28765 5.47656 -1.64228e-006 -9.56313e-007 -3.6943e-007 
39.7509 39.6495 18.561 179.997 58.9947 3.2456e-011 -0.0288353 8.86922 -0.083722 -0.0451953 17.7385 -0.165904 -0.0451953 17.7385 -0.165904 3.47716 1.4048 -0.718173 4.83257e-007 0.0592734 -5.17287e-007 -13.23 -3.54063 -3.63419 -48.9281 54.9984 3.04298 12.438 34.0288 -18.6324 2.63111 -7.18003 -0.115824 -3.97569e-016 -2.5842e-015 -0 2.76159e-009 2.39988e-007 4.03492e-006 1.59028e-015 -1.19271e-015 6.36111e-015 -3.97569e-016 -2.5842e-015 -0 -0.0146159 -8.84764e-005 5.81212e-007 3.97569e-016 -1.98785e-016 3.18055e-015 -3.97569e-016 -2.5842e-015 -0 -0.0187535 -0.00117569 5.79222e-005 -1.19271e-015 1.98785e-015 -9.54166e-015 -3.97569e-016 -2.5842e-015 -0 -0.0122828 -0.00325119 0.000684528 3.97569e-016 -1.98785e-016 -3.18055e-015 -3.97569e-016 -2.5842e-015 -0 2.76159e-009 2.39988e-007 4.03492e-006 1.59028e-015 -1.19271e-015 6.36111e-015 7.24731 -4.67014 2.85111 57.1471 54.9021 -3.01839 -13.3653 33.7325 23.4114 -1.98094 -5.03992 -5.90636 4.41391e-032 3.97569e-016 -6.36111e-015 2.20695e-032 3.97569e-016 -3.18055e-015 4.41391e-032 3.97569e-016 -6.36111e-015 4.41391e-032 3.97569e-016 -6.36111e-015 0.0149964 -9.08456e-005 -6.34523e-006 -7.95139e-016 -3.97569e-016 -0 4.41391e-032 3.97569e-016 -6.36111e-015 0.0190066 -0.0011914 -6.48417e-005 -7.55382e-015 2.48481e-014 -0 4.41391e-032 3.97569e-016 -6.36111e-015 0.0122682 -0.00324762 -0.000668715 -7.15625e-015 2.38542e-014 -0 4.41391e-032 3.97569e-016 -6.36111e-015 2.20695e-032 3.97569e-016 -3.18055e-015 4.41391e-032 3.97569e-016 -6.36111e-015 -51.562 -73.2833 -81.6402 -1.56673 34.7604 41.8181 -23.3061 -2.17307 -6.42258 -1.83876e-015 1.59028e-015 -7.95139e-016 54.002 -71.8843 83.908 1.56881 34.6827 -41.8441 21.3036 -2.28769 5.4766 2.88952e-009 -3.89524e-007 2.74634e-007 
39.7497 39.6494 18.5613 179.997 58.9947 3.2456e-011 -0.0285633 8.7865 -0.0838334 -0.0447405 17.573 -0.166162 -0.0447405 17.573 -0.166162 3.69955 1.93274 -0.780421 5.72779e-008 0.0588143 -2.7609e-007 -13.6518 -3.30356 -3.46955 -48.6183 55.0026 3.06157 12.438 34.0288 -18.6324 2.53468 -6.99337 -0.239704 4.53641e-008 2.9829e-007 -8.8445e-009 2.52926e-007 -3.43654e-007 1.05783e-008 4.53641e-008 2.9829e-007 -8.84452e-009 4.53641e-008 2.9829e-007 -8.8445e-009 -0.0146035 -8.84524e-005 1.15837e-005 4.53644e-008 2.98291e-007 -8.80654e-009 4.53641e-008 2.9829e-007 -8.8445e-009 -0.0187593 -0.00117655 4.9808e-005 4.53645e-008 2.98292e-007 -8.79614e-009 4.53641e-008 2.9829e-007 -8.8445e-009 -0.0122733 -0.00324896 0.000684452 4.53658e-008 2.98291e-007 -8.81385e-009 4.53641e-008 2.9829e-007 -8.8445e-009 2.52926e-007 -3.43654e-007 1.05783e-008 4.53641e-008 2.9829e-007 -8.84452e-009 7.62058 -4.38868 2.69844 56.8712 54.9033 -3.02537 -13.3653 33.7325 23.4114 -1.90042 -4.857 -5.79281 3.97569e-016 -2.64384e-014 3.18055e-015 -2.66289e-008 1.42639e-007 -2.59808e-006 1.99495e-008 9.71304e-008 -1.44702e-006 3.97569e-016 -2.64384e-014 3.18055e-015 0.0150041 -9.14863e-005 9.19477e-007 3.97569e-016 -2.34566e-014 6.36111e-015 3.97569e-016 -2.64384e-014 3.18055e-015 0.0190065 -0.00119207 -5.35302e-005 1.54487e-031 2.78299e-015 -3.18055e-015 3.97569e-016 -2.64384e-014 3.18055e-015 0.0123083 -0.00325736 -0.000677025 3.97569e-016 -7.95139e-016 1.27222e-014 3.97569e-016 -2.64384e-014 3.18055e-015 -2.66289e-008 1.42639e-007 -2.59808e-006 1.99495e-008 9.71304e-008 -1.44702e-006 -51.8639 -73.1224 -81.9234 -1.56651 34.7535 41.819 -23.1086 -2.18722 -6.32922 -2.5842e-015 -1.59028e-015 -7.95139e-016 54.0331 -71.8642 83.9369 1.56882 34.6831 -41.8439 21.3047 -2.28774 5.47663 -1.68584e-006 -4.92776e-008 -7.57815e-008 
39.7485 39.6494 18.5616 179.997 58.9947 3.2456e-011 -0.0282926 8.70384 -0.0839424 -0.0442892 17.4077 -0.166414 -0.0442894 17.4077 -0.166414 3.92283 2.46008 -0.844813 5.44671e-007 0.0583487 1.20193e-007 -14.0741 -3.06776 -3.30324 -48.3084 55.0069 3.08009 12.438 34.0288 -18.6324 2.43871 -6.80652 -0.363206 -7.95139e-016 1.98785e-016 9.54166e-015 -3.97569e-016 3.97569e-016 9.54166e-015 -1.19271e-015 5.96354e-016 6.36111e-015 -7.95139e-016 1.98785e-016 9.54166e-015 -0.0146133 -8.90333e-005 2.49276e-007 7.95139e-016 -1.78906e-015 -3.18055e-015 -7.95139e-016 1.98785e-016 9.54166e-015 -0.0187434 -0.001175 6.15113e-005 -1.59028e-015 7.95139e-016 6.36111e-015 -7.95139e-016 1.98785e-016 9.54166e-015 -0.0122867 -0.00325168 0.000678737 6.75868e-015 2.50469e-014 -3.18055e-015 -7.95139e-016 1.98785e-016 9.54166e-015 -3.97569e-016 3.97569e-016 9.54166e-015 -1.19271e-015 5.96354e-016 6.36111e-015 7.99441 -4.10831 2.54403 56.5954 54.9045 -3.03235 -13.3653 33.7325 23.4114 -1.82029 -4.67392 -5.67957 2.53267e-008 -1.42915e-007 2.62032e-006 2.70213e-008 4.21899e-007 -1.21683e-005 -1.13318e-007 1.65666e-007 -5.49127e-006 2.53267e-008 -1.42915e-007 2.62032e-006 0.0149867 -9.08144e-005 -8.03975e-006 -1.4009e-007 3.07529e-007 -8.11163e-006 2.53267e-008 -1.42915e-007 2.62032e-006 0.019005 -0.00119098 -7.04952e-005 -1.12703e-007 1.64713e-007 -5.49129e-006 2.53267e-008 -1.42915e-007 2.62032e-006 0.0123052 -0.0032574 -0.000676773 -1.40058e-007 3.08022e-007 -8.11155e-006 2.53267e-008 -1.42915e-007 2.62032e-006 2.70213e-008 4.21899e-007 -1.21683e-005 -1.13318e-007 1.65666e-007 -5.49127e-006 -52.1608 -72.9611 -82.2015 -1.5663 34.7468 41.8199 -22.9112 -2.20116 -6.23582 4.14598e-007 -1.44068e-007 4.72464e-008 54.064 -71.844 83.9656 1.56883 34.6835 -41.8437 21.3058 -2.28779 5.47667 3.57132e-007 2.00472e-007 1.63819e-008 
